<?xml version="1.0"?>
<svg xmlns="http://www.w3.org/2000/svg" id="Layer_1" height="512px" viewBox="0 0 512 512" width="512px" data-name="Layer 1" class=""><g><path d="m455.98 207.61-19.84 24.11-22.54-14.52v196.68l-92.03-.25v-12.24a18.821 18.821 0 0 0 -18.83-18.82h-23.34v-118.85l-19.56-26.07-27.24 31.51 17.48 21.52-17.48 21.66 17.48 14.45v15.81l-16.7 13.33.63 26.27v.37h-24.75a18.821 18.821 0 0 0 -18.83 18.82v11.87l-94.88-.27v-196.29l-21.29 15.11-18.24-24.29 203.37-173.61 45 37.87v-52.78h64.19v112.7z" fill="#00acea" data-original="#00ACEA" class="" data-old_color="#00acea" style="fill:#007BFF"/><path d="m321.57 413.63v41.72a37.655 37.655 0 0 1 -37.65 37.65h-55.84a37.655 37.655 0 0 1 -37.65-37.65v-53.96a18.821 18.821 0 0 1 18.83-18.82h93.48a18.821 18.821 0 0 1 18.83 18.82zm-30.75 34.19v-12.23h-69.64v12.23a12.552 12.552 0 0 0 12.55 12.55h44.54a12.552 12.552 0 0 0 12.55-12.55z" fill="#00efd1" data-original="#00EFD1" class="" data-old_color="#00efd1" style="fill:#29E2FF"/><path d="m290.82 435.59v12.23a12.552 12.552 0 0 1 -12.55 12.55h-44.54a12.552 12.552 0 0 1 -12.55-12.55v-12.23z" fill="#00acea" data-original="#00ACEA" class="" data-old_color="#00acea" style="fill:#007BFF"/><path d="m279.4 382.2v.37h-45.39v-.37l-.63-26.27 16.7-13.33v-15.81l-17.48-14.45 17.48-21.66-17.48-21.52 27.24-31.51 19.56 26.07z" fill="#fedb41" data-original="#FEDB41" class="active-path" style="fill:#FFD000" data-old_color="#fedb41"/></g> </svg>
